<svg width="146" height="146" viewBox="0 0 146 146" fill="none" xmlns="http://www.w3.org/2000/svg">
<path d="M73 143C111.66 143 143 111.66 143 73C143 34.3401 111.66 3 73 3C34.3401 3 3 34.3401 3 73C3 111.66 34.3401 143 73 143Z" fill="#AB99FB" stroke="black" stroke-width="5"/>
<path d="M40.315 93.942C40.8683 93.942 41.6983 93.361 42.805 92.199C43.967 91.037 45.212 89.5983 46.54 87.883C47.868 86.1677 49.1683 84.3693 50.441 82.488C51.7137 80.6067 52.765 78.9467 53.595 77.508C53.8717 78.504 54.0377 79.4447 54.093 80.33C54.1483 81.2153 54.01 82.0177 53.678 82.737C52.7927 84.5077 51.769 86.4167 50.607 88.464C49.445 90.5113 48.2 92.4203 46.872 94.191C45.544 95.9063 44.1607 97.345 42.722 98.507C41.3387 99.669 39.9553 100.25 38.572 100.25C38.1847 100.25 37.6313 100.001 36.912 99.503C36.248 99.005 35.584 98.3963 34.92 97.677C34.256 96.9023 33.675 96.0723 33.177 95.187C32.7343 94.2463 32.513 93.361 32.513 92.531C32.513 92.199 32.6237 91.3967 32.845 90.124C33.0663 88.796 33.3707 87.1913 33.758 85.31C34.2007 83.4287 34.6987 81.409 35.252 79.251C35.8607 77.0377 36.497 74.935 37.161 72.943C36.3863 73.607 35.5287 74.437 34.588 75.433C33.7027 76.3737 32.7897 77.425 31.849 78.587C30.9083 79.749 29.94 80.9663 28.944 82.239C28.0033 83.5117 27.118 84.812 26.288 86.14C25.8453 88.132 25.4027 90.0133 24.96 91.784C24.5173 93.4993 24.047 94.9933 23.549 96.266C23.051 97.4833 22.553 98.4517 22.055 99.171C21.6123 99.8903 21.1697 100.25 20.727 100.25C20.2843 100.25 19.731 99.9733 19.067 99.42C18.4583 98.8113 17.8497 98.092 17.241 97.262C16.6323 96.432 16.1067 95.602 15.664 94.772C15.2213 93.8867 15 93.1673 15 92.614C15 91.3413 15.2767 90.0963 15.83 88.879C16.3833 87.6617 17.158 86.4443 18.154 85.227C19.482 81.243 20.7547 76.9823 21.972 72.445C23.1893 67.9077 24.296 63.481 25.292 59.165C26.3433 54.849 27.2287 50.8373 27.948 47.13C28.7227 43.3673 29.2483 40.324 29.525 38C32.0703 38.6087 34.1453 39.411 35.75 40.407C37.3547 41.3477 38.157 42.2053 38.157 42.98C38.157 43.478 37.991 44.4187 37.659 45.802C37.327 47.1853 36.8843 48.873 36.331 50.865C35.833 52.8017 35.2243 54.932 34.505 57.256C33.841 59.58 33.1217 61.9593 32.347 64.394C31.6277 66.7733 30.8807 69.125 30.106 71.449C29.3313 73.773 28.612 75.8757 27.948 77.757C29.3313 75.8203 30.7147 73.9667 32.098 72.196C33.5367 70.37 34.8923 68.793 36.165 67.465C37.493 66.0817 38.738 64.975 39.9 64.145C41.1173 63.315 42.1963 62.9 43.137 62.9C43.469 62.9 43.9117 63.149 44.465 63.647C45.0737 64.0897 45.6823 64.643 46.291 65.307C46.8997 65.971 47.4253 66.635 47.868 67.299C48.3107 67.963 48.532 68.461 48.532 68.793C48.532 69.0143 48.2553 69.789 47.702 71.117C47.1487 72.3897 46.4847 73.9667 45.71 75.848C44.9353 77.674 44.1053 79.666 43.22 81.824C42.39 83.9267 41.6707 85.891 41.062 87.717C40.4533 89.4877 40.0383 90.9817 39.817 92.199C39.5957 93.361 39.7617 93.942 40.315 93.942ZM84.7544 70.37C83.371 71.3107 81.6834 72.196 79.6914 73.026C77.7547 73.8007 75.818 74.4647 73.8814 75.018C73.66 78.2273 72.9684 81.3537 71.8064 84.397C70.6444 87.385 69.261 90.0687 67.6564 92.448C66.107 94.772 64.447 96.6533 62.6764 98.092C60.961 99.5307 59.4117 100.25 58.0284 100.25C57.143 100.25 56.1747 99.8627 55.1234 99.088C54.1274 98.3133 53.1867 97.3727 52.3014 96.266C51.416 95.1593 50.669 93.9973 50.0604 92.78C49.4517 91.5073 49.1474 90.4007 49.1474 89.46C49.1474 88.0213 49.3964 86.3613 49.8944 84.48C50.3924 82.5987 51.0564 80.6897 51.8864 78.753C52.7164 76.761 53.657 74.8243 54.7084 72.943C55.7597 71.0063 56.8387 69.3187 57.9454 67.88C59.052 66.386 60.131 65.1963 61.1824 64.311C62.289 63.3703 63.285 62.9 64.1704 62.9C64.7237 62.9 65.36 63.2043 66.0794 63.813C66.854 64.3663 67.8777 65.3623 69.1504 66.801C68.763 67.0777 68.4034 67.382 68.0714 67.714C67.7394 68.046 67.4074 68.378 67.0754 68.71C67.85 68.8207 68.7077 68.9037 69.6484 68.959C70.589 69.0143 71.5574 69.042 72.5534 69.042C74.8774 69.042 77.2567 68.9313 79.6914 68.71C82.1814 68.4333 84.3117 68.0737 86.0824 67.631C86.0824 68.129 85.9164 68.6823 85.5844 69.291C85.3077 69.8443 85.031 70.204 84.7544 70.37ZM58.0284 95.519C59.135 94.9657 60.297 93.9973 61.5144 92.614C62.787 91.1753 63.9767 89.543 65.0834 87.717C66.19 85.8357 67.1584 83.8713 67.9884 81.824C68.8184 79.7213 69.3994 77.757 69.7314 75.931C68.7354 76.097 67.85 76.18 67.0754 76.18C66.19 76.18 65.4984 75.9587 65.0004 75.516C64.5024 75.018 64.115 74.188 63.8384 73.026C62.8424 74.5753 61.957 76.2353 61.1824 78.006C60.463 79.7213 59.8267 81.4367 59.2734 83.152C58.72 84.8673 58.305 86.5273 58.0284 88.132C57.7517 89.7367 57.6134 91.1753 57.6134 92.448C57.6134 93.5547 57.7517 94.5783 58.0284 95.519ZM90.683 70.121C89.9084 70.121 89.106 70.1487 88.276 70.204C87.5014 70.2593 86.782 70.3977 86.118 70.619C85.454 70.785 84.9007 71.034 84.458 71.366C84.0707 71.698 83.877 72.1407 83.877 72.694C83.877 73.4687 84.4857 74.437 85.703 75.599C86.9204 76.7057 88.2484 77.923 89.687 79.251C91.181 80.5237 92.5367 81.8517 93.754 83.235C94.9714 84.563 95.58 85.8357 95.58 87.053C95.58 88.1597 95.2757 89.4877 94.667 91.037C94.0584 92.531 93.2284 93.9697 92.177 95.353C91.181 96.681 89.9637 97.843 88.525 98.839C87.1417 99.7797 85.62 100.25 83.96 100.25C82.5767 100.25 81.2487 100.084 79.976 99.752C78.7034 99.42 77.569 99.0327 76.573 98.59C75.9644 98.3133 75.4664 97.6217 75.079 96.515C74.6917 95.4083 74.498 94.108 74.498 92.614C74.498 90.6773 74.8577 88.8237 75.577 87.053C76.2964 88.1597 77.1817 89.1833 78.233 90.124C79.3397 91.0647 80.474 91.8947 81.636 92.614C82.798 93.278 83.9047 93.8037 84.956 94.191C86.0074 94.5783 86.9204 94.772 87.695 94.772C88.857 94.772 89.438 94.3293 89.438 93.444C89.438 92.8907 88.8294 91.9777 87.612 90.705C86.45 89.377 85.1497 87.9383 83.711 86.389C82.3277 84.7843 81.0274 83.2073 79.81 81.658C78.648 80.0533 78.067 78.6977 78.067 77.591C78.067 76.3737 78.4544 74.935 79.229 73.275C80.0037 71.5597 80.972 69.955 82.134 68.461C83.3514 66.9117 84.707 65.6113 86.201 64.56C87.695 63.4533 89.189 62.9 90.683 62.9C91.6237 62.9 92.5644 63.2597 93.505 63.979C94.4457 64.6983 95.2757 65.556 95.995 66.552C96.7697 67.4927 97.3784 68.461 97.821 69.457C98.319 70.453 98.568 71.2 98.568 71.698C98.568 72.694 98.2637 73.5517 97.655 74.271C97.0464 74.9903 96.3824 75.5713 95.663 76.014C94.7777 76.5673 93.8094 77.0377 92.758 77.425L90.683 70.121ZM108.157 93.942C108.71 93.942 109.54 93.361 110.647 92.199C111.809 91.037 113.054 89.5983 114.382 87.883C115.71 86.1677 117.01 84.3693 118.283 82.488C119.556 80.6067 120.607 78.9467 121.437 77.508C121.714 78.504 121.88 79.4447 121.935 80.33C121.99 81.2153 121.852 82.0177 121.52 82.737C120.635 84.5077 119.611 86.4167 118.449 88.464C117.287 90.5113 116.042 92.4203 114.714 94.191C113.386 95.9063 112.003 97.345 110.564 98.507C109.181 99.669 107.797 100.25 106.414 100.25C105.695 100.25 104.865 99.8903 103.924 99.171C102.983 98.4517 102.098 97.5663 101.268 96.515C100.438 95.4637 99.7465 94.3293 99.1931 93.112C98.6398 91.8947 98.3631 90.8157 98.3631 89.875C98.3631 89.211 98.5845 87.9383 99.0271 86.057C99.5251 84.1203 100.162 81.8517 100.936 79.251C101.766 76.595 102.679 73.7453 103.675 70.702C104.671 67.6587 105.695 64.643 106.746 61.655C103.094 61.7103 100.079 61.7933 97.6991 61.904C95.3751 61.9593 93.9918 61.904 93.5491 61.738C93.1065 61.572 92.7468 61.2953 92.4701 60.908C92.1381 60.4653 91.8615 59.3863 91.6401 57.671C92.5255 57.837 94.0195 57.92 96.1221 57.92C97.6715 57.92 99.4421 57.8923 101.434 57.837C103.481 57.7817 105.722 57.7263 108.157 57.671C109.098 54.9043 109.983 52.3867 110.813 50.118C111.698 47.794 112.445 45.968 113.054 44.64C115.212 45.636 116.817 46.6597 117.868 47.711C118.919 48.7623 119.39 49.5093 119.279 49.952L116.872 57.422C118.587 57.3667 120.137 57.3113 121.52 57.256C122.959 57.2007 124.204 57.173 125.255 57.173C125.864 57.173 126.362 57.2007 126.749 57.256C127.192 57.256 127.551 57.2837 127.828 57.339C128.215 57.4497 128.52 57.754 128.741 58.252C129.018 58.6947 129.211 59.1927 129.322 59.746C129.433 60.2993 129.46 60.825 129.405 61.323C129.405 61.7657 129.377 62.0423 129.322 62.153C128.437 61.8763 127.109 61.7103 125.338 61.655C123.623 61.5997 121.603 61.572 119.279 61.572H115.544C114.825 63.7853 114.078 66.137 113.303 68.627C112.528 71.0617 111.781 73.4963 111.062 75.931C110.398 78.3103 109.762 80.6067 109.153 82.82C108.6 84.978 108.157 86.887 107.825 88.547C107.548 90.207 107.41 91.535 107.41 92.531C107.465 93.4717 107.714 93.942 108.157 93.942ZM131.183 91.369C130.851 91.9223 130.491 92.5863 130.104 93.361C129.717 94.1357 129.329 94.938 128.942 95.768C128.555 96.598 128.167 97.428 127.78 98.258C127.448 99.0327 127.171 99.6967 126.95 100.25C126.507 100.25 125.982 100.25 125.373 100.25C124.82 100.195 124.294 100.084 123.796 99.918C123.298 99.752 122.855 99.503 122.468 99.171C122.136 98.839 121.97 98.3963 121.97 97.843C121.97 97.0683 122.053 96.0723 122.219 94.855C122.44 93.6377 122.689 92.4757 122.966 91.369C123.243 90.207 123.575 89.2387 123.962 88.464C124.349 87.634 124.764 87.219 125.207 87.219C125.982 87.219 126.922 87.6063 128.029 88.381C129.191 89.1003 130.242 90.0963 131.183 91.369Z" fill="black"/>
</svg>
